<?xml version="1.0" encoding="UTF-8" standalone="no"?>
<!-- Created with Inkscape (http://www.inkscape.org/) -->

<svg
   width="400"
   height="400"
   viewBox="0 0 105.83333 105.83333"
   version="1.1"
   id="svg5"
   inkscape:export-filename="Rastergrafik.png"
   inkscape:export-xdpi="96"
   inkscape:export-ydpi="96"
   inkscape:version="1.2.2 (b0a8486541, 2022-12-01)"
   sodipodi:docname="Zeichnung.svg"
   xmlns:inkscape="http://www.inkscape.org/namespaces/inkscape"
   xmlns:sodipodi="http://sodipodi.sourceforge.net/DTD/sodipodi-0.dtd"
   xmlns="http://www.w3.org/2000/svg"
   xmlns:svg="http://www.w3.org/2000/svg">
  <sodipodi:namedview
     id="namedview7"
     pagecolor="#ffffff"
     bordercolor="#999999"
     borderopacity="1"
     inkscape:showpageshadow="0"
     inkscape:pageopacity="0"
     inkscape:pagecheckerboard="0"
     inkscape:deskcolor="#d1d1d1"
     inkscape:document-units="mm"
     showgrid="false"
     inkscape:zoom="1.2938725"
     inkscape:cx="225.29268"
     inkscape:cy="294.46488"
     inkscape:window-width="2560"
     inkscape:window-height="1371"
     inkscape:window-x="0"
     inkscape:window-y="0"
     inkscape:window-maximized="1"
     inkscape:current-layer="layer1" />
  <defs
     id="defs2" />
  <g
     inkscape:label="Ebene 1"
     inkscape:groupmode="layer"
     id="layer1">
    <rect
       style="fill:#f3f3f3;fill-opacity:1.0;stroke-width:0.264583"
       id="rect783"
       width="242.59802"
       height="189.80139"
       x="-82.468376"
       y="-42.428375" />
    <path
       id="rect511"
       style="stroke-width:0.264583;fill:#b55c80;fill-opacity:1.0"
       d="m 10.11663,6.8163416 h 70.806244 c 5.751257,0 5.790055,9.4947554 0,9.4947554 H 10.11663 c -5.2434738,0 -5.080361,-9.4947554 0,-9.4947554 z"
       sodipodi:nodetypes="ccccc" />
    <path
       id="rect511-3"
       style="fill:#47d7ac;fill-opacity:1;stroke-width:0.222742"
       d="M 9.9701815,19.950623 H 60.152551 c 4.986694,0 5.127619,9.494758 0,9.494758 H 9.9701815 c -5.5370324,0 -5.5352569,-9.494758 0,-9.494758 z"
       sodipodi:nodetypes="ccccc" />
    <path
       id="rect511-7"
       style="fill:#b55c80;fill-opacity:1;stroke-width:0.199392"
       d="M 10.744406,33.39181 H 50.95696 c 6.224964,-0.113827 6.474655,9.494756 0,9.494756 H 10.744406 c -6.1638553,0 -6.2988738,-9.494756 0,-9.494756 z"
       sodipodi:nodetypes="ccccc" />
    <path
       id="rect511-7-6"
       style="fill:#b55c80;fill-opacity:1;stroke-width:0.275779"
       d="m 10.213581,60.020003 h 76.925267 c 6.24824,0 6.290394,9.494756 0,9.494756 H 10.213581 c -5.6966077,0 -5.5194,-9.494756 0,-9.494756 z"
       sodipodi:nodetypes="ccccc" />
    <path
       id="rect511-3-5"
       style="fill:#47d7ac;fill-opacity:1.0;stroke-width:0.254238"
       d="M 9.3975111,46.526092 H 74.774885 c 5.310295,0 5.346118,9.494758 0,9.494758 H 9.3975111 c -4.8414428,0 -4.6908357,-9.494758 0,-9.494758 z"
       sodipodi:nodetypes="ccccc" />
  </g>
</svg>
